<svg width="32" height="32" xmlns="http://www.w3.org/2000/svg">

 <g>
  <title>background</title>
  <rect fill="none" id="canvas_background" height="34" width="34" y="-1" x="-1"/>
 </g>
 <g>
  <title>Layer 1</title>
  <g id="svg_1">
   <path fill="#31425E" id="svg_2" d="m30,15l2,0c0,-4.432 -3.594999,-8.064 -8.062,-8c-0.493999,-3.941 -3.865,-7 -7.938,-7c-4.051,0 -7.409,3.027 -7.927,7c-0.024,0 -0.049,0 -0.073,0c-4.411,0 -8,3.589 -8,8s3.589,8 8,8l4,0l0,-2l-4,0c-3.309,0 -6,-2.691 -6,-6s2.691,-6 6,-6c0.254,0 0.528,0.022 0.862,0.07c0.292,0.045 0.575999,-0.084 0.794999,-0.274s0.343,-0.506 0.343,-0.796c0,-3.309 2.691,-6 6,-6s6,2.691 6.000999,5.966c-0.001999,0.024 -0.004999,0.089 -0.004999,0.114c0,0.29 0.125999,0.565001 0.344999,0.755c0.219,0.189 0.508001,0.274 0.797001,0.234c0.334,-0.047 0.608,-0.069 0.862,-0.069c3.309,0 6,2.691 6,6z"/>
   <path fill="#31425E" id="svg_3" d="m27.040001,16c-0.002001,0 -0.003,0 -0.004999,0c-0.267,0 -0.523001,0.107 -0.711,0.297001l-2.999001,3.035l1.423,1.404999l1.251999,-1.268l0,9.531l2,0l0,-9.562l1.247999,1.291l1.438002,-1.389999l-2.933001,-3.034c-0.187,-0.194 -0.444,-0.304001 -0.712999,-0.305z"/>
   <path fill="#31425E" id="svg_4" d="m19,25.534l0,-9.534l-2,0l0,9.559l-1.245,-1.288l-1.438,1.389999l2.933,3.034c0.188,0.194 0.444,0.304001 0.714001,0.305c0.001999,0 0.002998,0 0.004999,0c0.267,0 0.523001,-0.107 0.711,-0.297001l2.999001,-3.035l-1.423,-1.404999l-1.256001,1.271z"/>
  </g>
 </g>
</svg>