<svg width="102" height="102" xmlns="http://www.w3.org/2000/svg">

 <g>
  <title>background</title>
  <rect fill="none" id="canvas_background" height="104" width="104" y="-1" x="-1"/>
 </g>
 <g>
  <title>Layer 1</title>
  <path fill="#31425E" id="svg_1" d="m9.5,17.1c1.2,0 2.2,-0.300001 3.2,-0.9c3.3,2.299999 14.500001,10.299999 16.3,11.4c1.6,1 3,1.9 5.099998,2c1,0 3.200001,0.1 6.600002,0.1c0.700001,1.4 2.200001,2.399998 3.899998,2.399998c2.400002,0 4.400002,-1.999998 4.400002,-4.399998c0,-2.400002 -2,-4.400002 -4.400002,-4.400002c-2.099998,0 -3.899998,1.5 -4.299999,3.5c-3.099998,0 -5.200001,0 -6.099998,-0.099998c-1.299999,0 -2.100002,-0.5 -3.6,-1.5c-1.6,-1 -12.200001,-8.6 -15.8,-11.1c0.4,-0.8 0.7,-1.8 0.7,-2.8c0,-3.3 -2.7,-5.9 -5.9,-5.9s-5.9,2.7 -5.9,5.9s2.5,5.8 5.8,5.8zm0,-8.900001c1.6,0 2.9,1.3 2.9,2.900001c0,1.599999 -1.299999,2.9 -2.9,2.9c-1.6,0 -2.9,-1.3 -2.9,-2.9c0,-1.6 1.3,-2.900001 2.9,-2.900001z"/>
  <path fill="#31425E" id="svg_2" d="m15.4,44.099998l8.800001,0c0.599998,1.700001 2.199999,2.900002 4.099998,2.900002c2.400002,0 4.400002,-2 4.400002,-4.400002c0,-2.399998 -2,-4.399998 -4.400002,-4.399998c-1.9,0 -3.5,1.200001 -4.099998,2.899998l-8.800001,0c-0.7,-2.5 -3,-4.399998 -5.7,-4.399998c-3.3,0 -5.9,2.700001 -5.9,5.899998s2.7,5.900002 5.9,5.900002c2.8,0.099998 5.1,-1.799999 5.7,-4.400002zm-8.599999,-1.5c0,-1.599998 1.3,-2.899998 2.9,-2.899998c1.6,0 2.900001,1.299999 2.900001,2.899998c0,1.600002 -1.3,2.900002 -2.900001,2.900002c-1.599999,0.099998 -2.9,-1.299999 -2.9,-2.900002z"/>
  <path fill="#31425E" id="svg_3" d="m16.700001,59.900002c2.699999,0 5.099998,-1.900002 5.699999,-4.400002l1.800001,0c0.599998,1.700001 2.199999,2.900002 4.099998,2.900002c2.400002,0 4.400002,-2 4.400002,-4.400002c0,-2.400002 -2,-4.400002 -4.400002,-4.400002c-1.9,0 -3.5,1.200001 -4.099998,2.900002l-1.800001,0c-0.699999,-2.5 -3,-4.400002 -5.699999,-4.400002c-3.300001,0 -5.900001,2.700001 -5.900001,5.900002s2.599999,5.900002 5.900001,5.900002zm0,-8.900002c1.599998,0 2.9,1.299999 2.9,2.900002s-1.300001,2.899998 -2.9,2.899998c-1.6,0 -2.900001,-1.299999 -2.900001,-2.899998s1.3,-2.900002 2.900001,-2.900002z"/>
  <path fill="#31425E" id="svg_4" d="m11,82.900002l0,-10.300003c0,-4.699997 1.6,-5.699997 4.3,-5.699997c3.3,0 6.999999,0 8.599999,0.099998c0.6,1.699997 2.200001,2.900002 4.200001,2.900002c2.4,0 4.4,-2 4.4,-4.400002c0,-2.400002 -2,-4.400002 -4.4,-4.400002c-1.9,0 -3.5,1.200001 -4.1,2.900002c-1.700001,0 -5.4,-0.099998 -8.6,-0.099998c-7.4,0 -7.4,6.5 -7.4,8.699997l0,10.200005c-2.6,0.599998 -4.6,3 -4.6,5.799995c0,3.300003 2.7,5.900002 5.9,5.900002s5.9,-2.699997 5.9,-5.900002c0.1,-2.699997 -1.7,-5 -4.2,-5.699997zm-1.7,8.599998c-1.6,0 -2.9,-1.300003 -2.9,-2.900002c0,-1.599998 1.3,-2.900002 2.9,-2.900002c1.599999,0 2.9,1.300003 2.9,2.900002c0.1,1.599998 -1.3,2.900002 -2.9,2.900002z"/>
  <path fill="#31425E" id="svg_5" d="m92.599998,82.800003l0,-10.200005c0,-2.099998 0,-8.699997 -7.299995,-8.699997c-3.300003,0 -7,0 -8.600006,0.099998c-0.599998,-1.700001 -2.199997,-2.900002 -4.099998,-2.900002c-2.400002,0 -4.400002,2 -4.400002,4.400002c0,2.400002 2,4.400002 4.400002,4.400002c1.900002,0 3.5,-1.200005 4.200005,-2.900002c1.699997,0 5.399994,-0.099998 8.599998,-0.099998c2.699997,0 4.299995,0.900002 4.299995,5.699997l0,10.300003c-2.5,0.699997 -4.299995,3 -4.299995,5.699997c0,3.300003 2.699997,5.900002 5.900002,5.900002s5.899994,-2.699997 5.899994,-5.900002c0,-2.799995 -2,-5.199997 -4.599998,-5.799995zm-1.299995,8.699997c-1.600006,0 -2.900002,-1.300003 -2.900002,-2.900002c0,-1.599998 1.299995,-2.900002 2.900002,-2.900002c1.599998,0 2.899994,1.300003 2.899994,2.900002c0,1.599998 -1.299995,2.900002 -2.899994,2.900002z"/>
  <path fill="#31425E" id="svg_6" d="m73,47c1.699997,0 3.199997,-1 3.900002,-2.400002c1.699997,0 4.699997,0 7.299995,0c6.800003,0 6.800003,-6 6.800003,-8l0,-22.099998c2.400002,-0.6 4.199997,-2.8 4.199997,-5.4c0,-3 -2.5,-5.5 -5.5,-5.5c-3,0 -5.5,2.5 -5.5,5.5c0,2.5 1.600006,4.599999 3.900002,5.299999l0,22.199999c0,4.200001 -1.299995,5 -3.799995,5c-2.5,0 -5.200005,0 -6.900002,0c-0.400002,-2 -2.200005,-3.5 -4.300003,-3.5c-2.400002,0 -4.400002,2 -4.400002,4.400002c-0.199997,2.5 1.800003,4.5 4.300003,4.5zm14.099998,-37.8c0,-1.4 1.099998,-2.5 2.5,-2.5c1.400002,0 2.5,1.1 2.5,2.5c0,1.400001 -1.099998,2.5 -2.5,2.5c-1.299995,0 -2.5,-1.099999 -2.5,-2.5z"/>
  <path fill="#31425E" id="svg_7" d="m72.699997,58.700001c1.900002,0 3.5,-1.200001 4.100006,-2.900002l10.799995,0c0.700005,2.5 3,4.400002 5.700005,4.400002c3.299995,0 5.899994,-2.700001 5.899994,-5.900002c0,-3.299999 -2.699997,-5.899998 -5.899994,-5.899998c-2.700005,0 -5.100006,1.899998 -5.700005,4.399998l-10.699997,0c-0.599998,-1.700001 -2.200005,-2.899998 -4.099998,-2.899998c-2.400002,0 -4.400002,2 -4.400002,4.399998s1.900002,4.400002 4.299995,4.400002zm20.700005,-7.299999c1.599998,0 2.900002,1.299999 2.900002,2.899998c0,1.600002 -1.300003,2.900002 -2.900002,2.900002s-2.900002,-1.299999 -2.900002,-2.900002c-0.099998,-1.599998 1.300003,-2.899998 2.900002,-2.899998z"/>
  <path fill="#31425E" id="svg_8" d="m42.400002,35.200001c-3.5,0 -6.300003,2.799999 -6.300003,6.299999l0,25.599998c0,3.5 2.800003,6.300003 6.300003,6.300003l16.199997,0c3.5,0 6.300003,-2.800003 6.300003,-6.300003l0,-25.599998c0,-3.5 -2.800003,-6.299999 -6.300003,-6.299999l-16.199997,0z"/>
  <path fill="#31425E" id="svg_9" d="m36.099998,19.299999c2.700001,0 5,-1.799999 5.700001,-4.299999l10,0c1.100002,0 2.100002,0 2.5,0.4c0.200001,0.200001 0.5,0.700001 0.5,2c0,1.800001 0,4.200001 -0.099998,6.1c-1.600002,0.700001 -2.799999,2.200001 -2.799999,4.1c0,2.4 2,4.4 4.399998,4.4c2.400002,0 4.400002,-2 4.400002,-4.4c0,-2 -1.299999,-3.6 -3.100002,-4.200001c0,-1.9 0.100002,-4.199999 0.100002,-6c0,-1.9 -0.400002,-3.299999 -1.299999,-4.099999c-1.300003,-1.3 -3,-1.2 -4.600002,-1.2l-9.899998,0c-0.600002,-2.6 -3,-4.5 -5.800003,-4.5c-3.299999,0 -5.899998,2.7 -5.899998,5.9c0,3.1 2.599998,5.799999 5.899998,5.799999zm0,-8.9c1.600002,0 2.900002,1.3 2.900002,2.900001c0,1.599999 -1.299999,2.900001 -2.900002,2.900001c-1.599998,0 -2.899998,-1.300001 -2.899998,-2.900001c0,-1.5 1.299999,-2.900001 2.899998,-2.900001z"/>
  <path fill="#31425E" id="svg_10" d="m44.599998,76.699997c-1.799999,0 -3.399998,1.100006 -4,2.600006l-11.099998,0c-2.1,0 -6.5,0 -6.5,5.899994c0,0.700005 0,1.400002 0,2c-2.6,0.600006 -4.5,3 -4.5,5.700005c0,3.299995 2.700001,5.900002 5.9,5.900002s5.9,-2.700005 5.9,-5.900002c0,-2.700005 -1.799999,-5 -4.299999,-5.700005c0,-0.599998 -0.1,-1.299995 -0.1,-2c0,-2.699997 0.9,-2.899994 3.5,-2.899994l10.9,0c0.5,1.899994 2.200001,3.199997 4.200001,3.199997c2.400002,0 4.400002,-2 4.400002,-4.400002c0.099998,-2.400002 -1.900002,-4.400002 -4.300003,-4.400002zm-17.299999,16.300003c0,1.599998 -1.299999,2.900002 -2.9,2.900002s-2.9,-1.300003 -2.9,-2.900002s1.299999,-2.900002 2.9,-2.900002s2.9,1.200005 2.9,2.900002z"/>
  <path fill="#31425E" id="svg_11" d="m73,87.199997c0,-0.599998 0,-1.299995 0,-2c0,-5.899994 -4.400002,-5.899994 -6.5,-5.899994l-6.099998,0c-0.700001,-1.600006 -2.200001,-2.600006 -4,-2.600006c-2.400002,0 -4.400002,2 -4.400002,4.400002c0,2.400002 2,4.400002 4.400002,4.400002c2,0 3.699997,-1.400002 4.199997,-3.199997l5.900002,0c2.599998,0 3.5,0.199997 3.5,2.899994c0,0.700005 0,1.400002 -0.099998,2c-2.5,0.700005 -4.300003,3 -4.300003,5.700005c0,3.299995 2.700005,5.900002 5.900002,5.900002c3.300003,0 5.900002,-2.700005 5.900002,-5.900002c0.099998,-2.700005 -1.800003,-5.099998 -4.400002,-5.700005zm-1.400002,8.700005c-1.599998,0 -2.900002,-1.300003 -2.900002,-2.900002s1.300003,-3 2.900002,-3c1.599998,0 2.900002,1.300003 2.900002,2.900002s-1.300003,3 -2.900002,3z"/>
 </g>
</svg>