<svg width="686" height="229" xmlns="http://www.w3.org/2000/svg">
 <metadata id="metadata138">image/svg+xml</metadata>

 <g>
  <title>background</title>
  <rect fill="#ffffff" id="canvas_background" height="231" width="688" y="-1" x="-1"/>
 </g>
 <g>
  <title>Layer 1</title>
  <g id="g6">
   <rect fill="#ffffff" stroke="#000000" id="rect8" height="50" width="80" y="77.789435" x="269.865609"/>
   <circle fill="#ffffff" stroke="#000000" r="30" id="ellipse10" cy="102.395735" cx="436.078199"/>
   <path fill="none" stroke="#000000" id="path12" stroke-miterlimit="10" d="m349.078186,102.395737l50.630005,0"/>
   <path fill="#000000" stroke="#000000" id="path14" stroke-miterlimit="10" d="m404.958191,102.395737l-7,3.5l1.75,-3.5l-1.75,-3.5l7,3.5z"/>
   <rect fill="#ffffff" stroke="#000000" id="rect16" height="50" width="80" y="152.395735" x="269.078199"/>
   <rect fill="#ffffff" stroke="#000000" id="rect18" height="50" width="80" y="2.395735" x="269.078199"/>
   <path fill="none" stroke="#000000" id="path20" stroke-miterlimit="10" d="m349.078186,27.395735l77,0q10,0 10,9.999998l0,28.630001"/>
   <path fill="#000000" stroke="#000000" id="path22" stroke-miterlimit="10" d="m436.078186,71.275734l-3.5,-7l3.5,1.75l3.5,-1.75l-3.5,7z"/>
   <path fill="none" stroke="#000000" id="path24" stroke-miterlimit="10" d="m349.078186,177.395737l77,0q10,0 10,-10l0,-28.630005"/>
   <path fill="#000000" stroke="#000000" id="path26" stroke-miterlimit="10" d="m436.078186,133.515732l3.5,7l-3.5,-1.75l-3.5,1.75l3.5,-7z"/>
   <rect fill="#ffffff" stroke="#000000" id="rect28" height="50" width="80" y="77.395735" x="496.078199"/>
   <path fill="none" stroke="#000000" id="path30" stroke-miterlimit="10" d="m466.078186,102.395737l23.630005,0"/>
   <path fill="#000000" stroke="#000000" id="path32" stroke-miterlimit="10" d="m494.958191,102.395737l-7,3.5l1.75,-3.5l-1.75,-3.5l7,3.5z"/>
   <path fill="none" stroke="#000000" id="path34" stroke-miterlimit="10" d="m626.078186,102.395737l0,110q0,10 -10,10l-509.999985,0q-10,0 -10,-10l0,-73.62999"/>
   <path fill="#000000" stroke="#000000" id="path36" stroke-miterlimit="10" d="m96.078201,133.515732l3.5,7l-3.5,-1.75l-3.5,1.75l3.5,-7z"/>
   <circle fill="#ffffff" stroke="#000000" r="30" id="ellipse38" cy="102.395735" cx="96.078199"/>
   <path fill="none" stroke="#000000" id="path40" stroke-miterlimit="10" d="m126.078201,102.395737l136.62999,0"/>
   <path fill="#000000" stroke="#000000" id="path42" stroke-miterlimit="10" d="m267.958191,102.395737l-7,3.5l1.75,-3.5l-1.75,-3.5l7,3.5z"/>
   <path fill="none" stroke="#000000" id="path44" stroke-miterlimit="10" d="m196.078201,102.395737l0,65q0,10 10,10l56.62999,0"/>
   <path fill="#000000" stroke="#000000" id="path46" stroke-miterlimit="10" d="m267.958191,177.395737l-7,3.5l1.75,-3.5l-1.75,-3.5l7,3.5z"/>
   <path fill="none" stroke="#000000" id="path48" stroke-miterlimit="10" d="m196.078201,102.395737l0,-65.000004q0,-9.999998 10,-9.999998l56.62999,0"/>
   <path fill="#000000" stroke="#000000" id="path50" stroke-miterlimit="10" d="m267.958191,27.395735l-7,3.5l1.75,-3.5l-1.75,-3.5l7,3.5z"/>
   <path fill="none" stroke="#000000" id="path52" stroke-miterlimit="10" d="m576.078186,102.395737l93.630005,0"/>
   <path fill="#000000" stroke="#000000" id="path54" stroke-miterlimit="10" d="m674.958191,102.395737l-7,3.5l1.75,-3.5l-1.75,-3.5l7,3.5z"/>
   <path fill="none" stroke="#000000" stroke-width="1.029065" id="path56" stroke-miterlimit="10" d="m2.915375,102.395737l56.792823,0"/>
   <path fill="#000000" stroke="#000000" id="path58" stroke-miterlimit="10" d="m64.958199,102.395737l-7.000004,3.5l1.75,-3.5l-1.75,-3.5l7.000004,3.5z"/>
   <g id="g114"/>
   <path fill="none" stroke="#000000" id="path120" stroke-miterlimit="10" d="m319.078186,92.395737l0,0"/>
   <path fill="#000000" stroke="#000000" id="path122" stroke-miterlimit="10" d="m319.078186,92.395737l0,0l0,0l0,0z"/>
   <text font-style="normal" font-weight="normal" font-size="40px" font-family="sans-serif" fill="#000000" stroke-width="1px" id="text4266" y="35.558775" x="301.763659" xml:space="preserve">
    <tspan font-style="normal" font-weight="normal" font-size="25px" font-family="sans-serif" text-anchor="start" y="35.558775" x="301.763659" id="tspan4268">P</tspan>
   </text>
   <text font-style="normal" font-weight="normal" font-size="40px" font-family="sans-serif" fill="#000000" stroke-width="1px" id="text4266-7" y="112.153455" x="304.856949" xml:space="preserve">
    <tspan font-style="normal" font-weight="normal" font-size="25px" font-family="sans-serif" text-anchor="start" y="112.153455" x="304.856949" id="tspan4268-6">I</tspan>
   </text>
   <text font-style="normal" font-weight="normal" font-size="40px" font-family="sans-serif" fill="#000000" stroke-width="1px" id="text4266-7-1" y="186.419615" x="301.055099" xml:space="preserve">
    <tspan font-style="normal" font-weight="normal" font-size="25px" font-family="sans-serif" text-anchor="start" y="186.419615" x="301.055099" id="tspan4268-6-4">D</tspan>
   </text>
   <text font-style="normal" font-weight="normal" font-size="40px" font-family="sans-serif" fill="#000000" stroke-width="1px" id="text4306" y="93.408552" x="9.4606" xml:space="preserve">
    <tspan font-style="normal" font-weight="normal" font-size="15px" font-family="sans-serif" text-anchor="start" y="93.408552" x="9.4606" id="tspan4308">Input</tspan>
   </text>
   <text font-style="normal" font-weight="normal" font-size="40px" font-family="sans-serif" fill="#000000" stroke-width="1px" id="text4306-6" y="93.918089" x="142.093779" xml:space="preserve">
    <tspan font-style="normal" font-weight="normal" font-size="15px" font-family="sans-serif" text-anchor="start" y="93.918089" x="142.093779" id="tspan4308-1">Error</tspan>
   </text>
   <text font-style="normal" font-weight="normal" font-size="40px" font-family="sans-serif" fill="#000000" stroke-width="1px" id="text4306-6-8" y="93.127394" x="598.331129" xml:space="preserve">
    <tspan font-style="normal" font-weight="normal" font-size="15px" font-family="sans-serif" text-anchor="start" y="93.127394" x="598.331129" id="tspan4308-1-7">Output</tspan>
   </text>
   <text font-style="normal" font-weight="normal" font-size="40px" font-family="sans-serif" fill="#000000" stroke-width="1px" id="text4306-6-8-7" y="107.189445" x="507.989359" xml:space="preserve">
    <tspan font-style="normal" font-weight="normal" font-size="15px" font-family="sans-serif" text-anchor="start" y="107.189445" x="507.989359" id="tspan4308-1-7-7">Process</tspan>
   </text>
   <text font-style="normal" font-weight="normal" font-size="40px" font-family="sans-serif" fill="#000000" stroke-width="1px" id="text4364" y="69.700384" x="412.807169" xml:space="preserve">
    <tspan font-style="normal" font-weight="normal" font-size="20px" font-family="sans-serif" text-anchor="start" y="69.700384" x="412.807169" id="tspan4366">+</tspan>
   </text>
   <text font-style="normal" font-weight="normal" font-size="40px" font-family="sans-serif" fill="#000000" stroke-width="1px" id="text4364-7" y="95.581213" x="384.816999" xml:space="preserve">
    <tspan font-style="normal" font-weight="normal" font-size="20px" font-family="sans-serif" text-anchor="start" y="95.581213" x="384.816999" id="tspan4366-3">+</tspan>
   </text>
   <text font-style="normal" font-weight="normal" font-size="40px" font-family="sans-serif" fill="#000000" stroke-width="1px" id="text4364-6" y="149.631885" x="412.081469" xml:space="preserve">
    <tspan font-style="normal" font-weight="normal" font-size="20px" font-family="sans-serif" text-anchor="start" y="149.631885" x="412.081469" id="tspan4366-8">+</tspan>
   </text>
   <text font-style="normal" font-weight="normal" font-size="40px" font-family="sans-serif" fill="#000000" stroke-width="1px" id="text4364-3" y="125.481905" x="47.593839" xml:space="preserve">
    <tspan font-style="normal" font-weight="normal" font-size="20px" font-family="sans-serif" text-anchor="start" y="125.481905" x="47.593839" id="tspan4366-7">+</tspan>
   </text>
   <text font-style="normal" font-weight="normal" font-size="40px" font-family="sans-serif" fill="#000000" stroke-width="1px" id="text4364-2" y="150.292665" x="78.148634" xml:space="preserve">
    <tspan font-style="normal" font-weight="normal" font-size="20px" font-family="sans-serif" text-anchor="start" y="150.292665" x="78.148634" id="tspan4366-34">-</tspan>
   </text>
  </g>
 </g>
</svg>