<svg width="102" height="102" xmlns="http://www.w3.org/2000/svg">
 <metadata id="metadata48">image/svg+xmlall</metadata>

 <title>all</title>
 <g>
  <title>background</title>
  <rect fill="none" id="canvas_background" height="104" width="104" y="-1" x="-1"/>
 </g>
 <g>
  <title>Layer 1</title>
  <g id="g6">
   <g id="g8">
    <g id="g10">
     <g id="g12">
      <g id="g14">
       <g id="g16">
        <g id="g18">
         <g id="g20">
          <g id="g22">
           <g id="g24">
            <g id="g26">
             <g id="g28">
              <g id="g30">
               <g id="g32">
                <g id="g34">
                 <g id="g36">
                  <path fill="#31425E" id="path38" d="m100.709999,25.309999a2.3,2.3 0 0 0 -3.910004,-1.43l-12.929993,12.92l-14.32,-4.529999l-4.550003,-14.33l12.93,-12.940001a2.3,2.3 0 0 0 -1.419998,-3.9a26.59,26.59 0 0 0 -27.170002,35.9c-0.389999,0.330002 -0.779999,0.68 -1.16,1.049999l-43.18,40.719997l0,0a13,13 0 1 0 18.34,18.390007l0.059999,-0.059998l40.359999,-43.480007a15.24,15.24 0 0 0 0.999996,-1.150002a26.59,26.59 0 0 0 35.950005,-27.159998zm-83.869999,66.429998a4.79,4.79 0 1 1 0,-6.769997a4.79,4.79 0 0 1 0,6.769997z"/>
                 </g>
                </g>
               </g>
              </g>
             </g>
            </g>
           </g>
          </g>
         </g>
        </g>
       </g>
      </g>
     </g>
    </g>
   </g>
  </g>
 </g>
</svg>