<?xml version="1.0" encoding="UTF-8" standalone="no"?>
<svg
   xmlns:dc="http://purl.org/dc/elements/1.1/"
   xmlns:cc="http://creativecommons.org/ns#"
   xmlns:rdf="http://www.w3.org/1999/02/22-rdf-syntax-ns#"
   xmlns:svg="http://www.w3.org/2000/svg"
   xmlns="http://www.w3.org/2000/svg"
   xmlns:sodipodi="http://sodipodi.sourceforge.net/DTD/sodipodi-0.dtd"
   xmlns:inkscape="http://www.inkscape.org/namespaces/inkscape"
   version="1.1"
   width="500mm"
   height="300mm"
   viewBox="0 0 1771.655 1062.993"
   id="svg26"
   sodipodi:docname="Joelin_boxi_5.svg"
   inkscape:version="0.92.1 r15371">
  <metadata
     id="metadata32">
    <rdf:RDF>
      <cc:Work
         rdf:about="">
        <dc:format>image/svg+xml</dc:format>
        <dc:type
           rdf:resource="http://purl.org/dc/dcmitype/StillImage" />
        <dc:title></dc:title>
      </cc:Work>
    </rdf:RDF>
  </metadata>
  <defs
     id="defs30" />
  <sodipodi:namedview
     pagecolor="#ffffff"
     bordercolor="#666666"
     borderopacity="1"
     objecttolerance="10"
     gridtolerance="10"
     guidetolerance="10"
     inkscape:pageopacity="0"
     inkscape:pageshadow="2"
     inkscape:window-width="1846"
     inkscape:window-height="1057"
     id="namedview28"
     showgrid="false"
     inkscape:object-paths="true"
     inkscape:snap-intersection-paths="true"
     inkscape:snap-smooth-nodes="true"
     inkscape:snap-midpoints="true"
     inkscape:snap-object-midpoints="true"
     inkscape:snap-center="true"
     inkscape:snap-text-baseline="true"
     inkscape:snap-page="true"
     inkscape:snap-bbox="true"
     inkscape:snap-bbox-midpoints="true"
     inkscape:snap-bbox-edge-midpoints="true"
     inkscape:bbox-nodes="true"
     inkscape:bbox-paths="true"
     inkscape:zoom="0.5"
     inkscape:cx="816.82576"
     inkscape:cy="530.13912"
     inkscape:window-x="66"
     inkscape:window-y="-8"
     inkscape:window-maximized="1"
     inkscape:current-layer="g5079"
     fit-margin-top="4"
     fit-margin-left="4"
     fit-margin-right="4"
     fit-margin-bottom="4" />
  <!-- Front-->
  <g
     transform="translate(14.62323,698.42541)"
     id="g4" />
  <!-- Back-->
  <!-- Left-->
  <g
     transform="translate(1329.1912,407.87399)"
     id="g12" />
  <!-- Right-->
  <g
     transform="rotate(90,315.38291,1141.3675)"
     id="g16" />
  <!-- Top-->
  <g
     transform="translate(14.62323,825.98457)"
     id="g20" />
  <!-- Bottom-->
  <g
     id="g4504"
     transform="translate(-1322.4448,371.20075)" />
  <g
     id="g5079"
     transform="translate(-1322.4448,385.37397)">
    <g
       id="g8"
       transform="translate(1348.318,54.375044)" />
    <path
       id="path4519-4"
       style="opacity:1;fill:none;fill-opacity:1;stroke:#000000;stroke-width:0.70875055;stroke-miterlimit:4;stroke-dasharray:none;stroke-opacity:1"
       d="m 2662.886,196.10745 h 14.1732 v -14.17329 h 28.3465 v 14.17329 h 28.3465 v -14.17329 h 28.3466 v 14.17329 l 28.3464,1e-5 v 23.03151 h -14.1732 v 37.2048 h 14.1732 v 28.3465 h -14.1732 v 37.2047 h 14.1732 v 23.0315 h -28.3464 v 14.17329 h -28.3466 v -14.17329 h -28.3465 v 14.17329 h -28.3465 V 344.92647 H 2662.886 M 1459.578,125.24124 a 35.078724,35.078724 0 0 1 -35.0787,35.07872 35.078724,35.078724 0 0 1 -35.0788,-35.07872 35.078724,35.078724 0 0 1 35.0788,-35.078727 35.078724,35.078724 0 0 1 35.0787,35.078727 z m 44.2913,-33.661452 a 8.5038996,8.5038996 0 0 1 -8.5039,8.503902 8.5038996,8.5038996 0 0 1 -8.5039,-8.503902 8.5038996,8.5038996 0 0 1 8.5039,-8.5039 8.5038996,8.5038996 0 0 1 8.5039,8.5039 z m 0,67.322892 a 8.5038996,8.5038996 0 0 1 -8.5039,8.5039 8.5038996,8.5038996 0 0 1 -8.5039,-8.5039 8.5038996,8.5038996 0 0 1 8.5039,-8.5039 8.5038996,8.5038996 0 0 1 8.5039,8.5039 z m 1020.4732,0 a 8.5038996,8.5038996 0 0 1 -8.5039,8.5039 8.5038996,8.5038996 0 0 1 -8.5039,-8.5039 8.5038996,8.5038996 0 0 1 8.5039,-8.5039 8.5038996,8.5038996 0 0 1 8.5039,8.5039 z m 0,-67.322892 a 8.5038996,8.5038996 0 0 1 -8.5039,8.503902 8.5038996,8.5038996 0 0 1 -8.5039,-8.503902 8.5038996,8.5038996 0 0 1 8.5039,-8.5039 8.5038996,8.5038996 0 0 1 8.5039,8.5039 z M 1362.4912,196.10745 h -14.1732 v -28.34648 h 14.1732 V 139.41449 H 1348.318 V 111.068 h 14.1732 V 82.721524 h -14.1732 v -28.34648 h 38.0906 v 14.17324 h 38.0906 v -14.17324 h 28.3464 v 14.17324 h 28.3465 v -14.17324 h 28.3465 v 14.17324 h 28.3465 v -14.17324 h 28.3465 v 14.17324 h 28.3464 v -14.17324 h 28.3465 v 14.17324 h 28.3465 v -14.17324 h 28.3465 v 14.17324 h 28.3465 v -14.17324 h 28.3464 v 14.17324 h 28.3465 v -14.17324 h 28.3465 v 14.17324 h 28.3465 v -14.17324 h 28.3465 v 14.17324 h 28.3464 v -14.17324 h 28.3465 v 14.17324 h 28.3465 v -14.17324 h 28.3465 v 14.17324 h 28.3465 v -14.17324 h 28.3464 v 14.17324 h 28.3465 v -14.17324 h 28.3465 v 14.17324 h 28.3465 v -14.17324 h 28.3465 v 14.17324 h 28.3464 v -14.17324 h 28.3465 v 14.17324 h 28.3465 v -14.17324 h 28.3465 v 14.17324 h 28.3465 v -14.17324 h 28.3464 v 14.17324 h 28.3465 v -14.17324 h 28.3465 v 14.17324 h 28.3465 v -14.17324 h 28.3465 v 14.17324 h 28.3464 v -14.17324 h 28.3465 v 14.17324 h 28.3465 v -14.17324 h 28.3465 v 14.17324 h 28.3465 v -14.17324 h 28.3464 v 14.17324 h 38.0906 v -14.17324 h 38.0906 v 28.34648 h -14.1732 V 111.068 h 14.1732 v 28.34649 h -14.1732 v 28.34648 h 14.1732 v 28.34648 h -14.1732 m -104.8818,74.40952 a 56.338585,56.338585 0 0 1 -56.3386,56.33858 56.338585,56.338585 0 0 1 -56.3386,-56.33858 56.338585,56.338585 0 0 1 56.3386,-56.33859 56.338585,56.338585 0 0 1 56.3386,56.33859 z m -963.7805,10e-6 a 56.338631,56.338631 0 0 1 -56.3386,56.33863 56.338631,56.338631 0 0 1 -56.3386,-56.33863 56.338631,56.338631 0 0 1 56.3386,-56.33863 56.338631,56.338631 0 0 1 56.3386,56.33863 z m 212.9529,74.40949 h -28.3465 v 14.17324 h -28.3465 v -14.17324 h -28.3464 v 14.17324 h -28.3465 v -14.17324 h -28.3465 v 14.17324 h -28.3465 v -14.17324 h -28.3465 v 14.17324 h -28.3464 v -14.17324 h -28.3465 v 14.17324 h -28.3465 v -14.17324 h -28.3465 v 14.17324 h -28.3465 v -14.17324 h -28.3464 v 14.17324 h -38.0906 v -14.17324 h -23.9174 V 321.89495 H 1348.318 V 284.6902 h 14.1732 v -28.34648 h -14.1732 v -37.20475 h 14.1732 v -23.03152 h 23.9174 v -14.17324 h 38.0906 v 14.17324 h 28.3464 v -14.17324 h 28.3465 v 14.17324 h 28.3465 v -14.17324 h 28.3465 v 14.17324 h 28.3465 v -14.17324 h 28.3464 v 14.17324 h 28.3465 v -14.17324 h 28.3465 v 14.17324 h 28.3465 v -14.17324 h 28.3465 v 14.17324 h 28.3464 v -14.17324 h 28.3465 v 14.17324 h 28.3465 v -14.17324 h 28.3465 v 14.17324 h 28.3465 v -14.17324 h 28.3464 v 14.17324 h 28.3465 v -14.17324 h 28.3465 v 14.17324 h 28.3465 v -14.17324 h 28.3465 v 14.17324 h 28.3464 v -14.17324 h 28.3465 v 14.17324 h 28.3465 v -14.17324 h 28.3465 v 14.17324 h 28.3465 v -14.17324 h 28.3464 v 14.17324 h 28.3465 v -14.17324 h 28.3465 v 14.17324 h 28.3465 v -14.17324 h 28.3465 v 14.17324 h 28.3464 v -14.17324 h 28.3465 v 14.17324 h 28.3465 v -14.17324 h 28.3465 v 14.17324 h 28.3465 v -14.17324 h 28.3464 v 14.17324 h 28.3465 v -14.17324 h 28.3465 v 14.17324 h 28.3465 v -14.17324 h 28.3465 v 14.17324 h 28.3464 v -14.17324 h 38.0906 v 14.17324 h 23.9174 v 23.03152 h 14.1732 v 37.20475 h -14.1732 v 28.34648 h 14.1732 v 37.20475 h -14.1732 v 23.03152 h -23.9174 v 14.17324 h -38.0906 v -14.17324 h -28.3464 v 14.17324 h -28.3465 v -14.17324 h -28.3465 v 14.17324 h -28.3465 v -14.17324 h -28.3465 v 14.17324 h -28.3464 v -14.17324 h -28.3465 v 14.17324 h -28.3465 v -14.17324 h -28.3465 v 14.17324 H 2303.24 v -14.17324 h -28.3464 v 14.17324 h -28.3465 v -14.17324 h -28.3465 v 14.17324 h -28.3465 v -14.17324 h -28.3465 v 14.17324 h -28.3464 v -14.17324 h -28.3465 v 14.17324 h -28.3465 v -14.17324 h -28.3465 v 14.17324 h -28.3465 v -14.17324 h -28.3464 v 14.17324 h -28.3465 v -14.17324 h -28.3465 v 14.17324 h -28.3465 v -14.17324 h -28.3465 v 14.17324 h -28.3464 v -14.17324 h -28.3465 v 14.17324 h -28.3465 z M 1651.271,472.48563 v 14.17324 h 28.3465 v -14.17324 h 28.3465 v 14.17324 h 28.3465 v -14.17324 h 28.3465 v 14.17324 h 28.3464 v -14.17324 h 28.3465 v 14.17324 h 28.3465 v -14.17324 h 28.3465 v 14.17324 h 28.3465 v -14.17324 h 28.3464 v 14.17324 h 28.3465 v -14.17324 h 28.3465 v 14.17324 h 28.3465 v -14.17324 h 28.3465 v 14.17324 h 28.3464 v -14.17324 h 28.3465 v 14.17324 h 28.3465 v -14.17324 h 28.3465 v 14.17324 h 28.3465 v -14.17324 h 28.3464 v 14.17324 h 28.3465 v -14.17324 h 28.3465 v 14.17324 h 28.3465 v -14.17324 h 28.3465 v 14.17324 h 28.3464 v -14.17324 h 28.3465 v 14.17324 h 28.3465 v -14.17324 h 28.3464 v 14.17324 h 28.3465 v -14.17324 h 28.3465 v 14.17324 h 28.3465 v -14.17324 h 28.3465 v 14.17324 h 28.3464 v -14.17324 h 38.0906 v 14.17324 h 23.9174 v 23.03151 h 14.1732 v 37.20476 h -14.1732 v 28.34648 h 14.1732 v 37.20475 h -14.1732 v 23.03152 h -23.9174 v 14.17324 h -38.0906 v -14.17324 h -28.3464 v 14.17324 h -28.3465 v -14.17324 h -28.3465 v 14.17324 h -28.3465 v -14.17324 h -28.3465 v 14.17324 h -28.3464 v -14.17324 h -28.3465 v 14.17324 h -28.3465 v -14.17324 h -28.3464 v 14.17324 h -28.3465 v -14.17324 h -28.3465 v 14.17324 h -28.3465 v -14.17324 h -28.3465 v 14.17324 h -28.3464 v -14.17324 h -28.3465 v 14.17324 h -28.3465 v -14.17324 h -28.3465 v 14.17324 h -28.3465 v -14.17324 h -28.3465 v 14.17324 h -28.3464 v -14.17324 h -28.3465 v 14.17324 h -28.3465 v -14.17324 h -28.3465 v 14.17324 h -28.3464 v -14.17324 h -28.3465 v 14.17324 h -28.3465 v -14.17324 h -28.3465 v 14.17324 h -28.3465 v -14.17324 h -28.3464 v 14.17324 h -28.3465 v -14.17324 h -28.3465 v 14.17324 h -28.3465 v -14.17324 h -28.3465 v 14.17324 h -28.3464 v -14.17324 h -28.3465 v 14.17324 h -28.3465 v -14.17324 h -28.3465 v 14.17324 h -28.3465 v -14.17324 h -28.3465 v 14.17324 h -28.3464 v -14.17324 h -28.3465 v 14.17324 h -38.0906 v -14.17324 h -23.9173 v -23.03152 h -14.1733 v -37.20475 h 14.1733 v -28.34648 h -14.1733 v -37.20476 h 14.1733 v -23.03151 h 23.9173 v -14.17324 h 38.0906 v 14.17324 h 28.3465 v -14.17324 h 28.3464 v 14.17324 h 28.3465 v -14.17324 h 28.3465 v 14.17324 h 28.3465 v -14.17324 h 28.3465 v 14.17324 h 28.3465 v -14.17324 z m 997.4418,14.17324 28.3465,2e-5 v -14.17324 h 28.3465 v 14.17324 h 28.3465 v -14.17324 h 28.3464 v 14.17324 h 28.3465 v 23.03152 h -14.1732 v 37.20475 h 14.1732 v 28.34648 h -14.1732 v 37.20475 h 14.1732 v 23.03152 h -28.3465 v 14.17324 h -28.3464 v -14.17324 h -28.3465 v 14.17324 h -28.3465 v -14.17324 l -28.3465,-2e-5 M 1362.4913,486.65887 h -14.1733 v -28.34648 h 14.1733 v -28.34648 h -14.1733 v -28.34648 h 14.1733 v -28.34648 h -14.1733 v -28.34648 h 14.1732 m 1286.2216,0 h 14.1732 v 28.34648 h -14.1732 v 28.34648 h 14.1732 v 28.34648 h -14.1732 v 28.34648 h 14.1732 v 28.34648" />
  </g>
</svg>
